<svg width="14" height="16" viewBox="0 0 14 16" fill="none" xmlns="http://www.w3.org/2000/svg">
<path d="M9.66708 4.00016C9.66708 2.5274 8.47317 1.3335 7.00041 1.3335C5.52765 1.3335 4.33374 2.5274 4.33374 4.00016M1.39508 6.90147L0.995078 11.1681C0.881346 12.3813 0.824481 12.9878 1.02578 13.4563C1.20261 13.8679 1.51249 14.2082 1.90575 14.4227C2.35343 14.6668 2.96265 14.6668 4.18111 14.6668H9.81971C11.0382 14.6668 11.6474 14.6668 12.0951 14.4227C12.4883 14.2082 12.7982 13.8679 12.975 13.4563C13.1763 12.9878 13.1195 12.3813 13.0057 11.1681L12.6057 6.90147C12.5097 5.87706 12.4617 5.36485 12.2313 4.97761C12.0284 4.63655 11.7286 4.36357 11.3701 4.19339C10.9631 4.00016 10.4486 4.00016 9.41971 4.00016L4.58111 4.00016C3.5522 4.00016 3.03775 4.00016 2.63069 4.19339C2.27219 4.36357 1.97241 4.63655 1.76952 4.9776C1.53914 5.36485 1.49112 5.87706 1.39508 6.90147Z" stroke="black" stroke-linecap="round" stroke-linejoin="round"/>
</svg>
