<svg width="20" height="22" viewBox="0 0 20 22" fill="none" xmlns="http://www.w3.org/2000/svg">
<path fill-rule="evenodd" clip-rule="evenodd" d="M5.50027 5V5.75H3.51327C2.55327 5.75 1.74927 6.474 1.64827 7.429L0.385273 19.429C0.357803 19.6903 0.385575 19.9545 0.466788 20.2045C0.548001 20.4544 0.680841 20.6844 0.856692 20.8797C1.03254 21.075 1.24748 21.2311 1.48755 21.338C1.72763 21.4448 1.98749 21.5 2.25027 21.5H17.7503C18.0131 21.5 18.2729 21.4448 18.513 21.338C18.7531 21.2311 18.968 21.075 19.1439 20.8797C19.3197 20.6844 19.4525 20.4544 19.5338 20.2045C19.615 19.9545 19.6427 19.6903 19.6153 19.429L18.3523 7.429C18.3038 6.96815 18.0865 6.54155 17.7421 6.23151C17.3977 5.92146 16.9507 5.74993 16.4873 5.75H14.5003V5C14.5003 3.80653 14.0262 2.66193 13.1823 1.81802C12.3383 0.974106 11.1937 0.5 10.0003 0.5C8.8068 0.5 7.66221 0.974106 6.81829 1.81802C5.97438 2.66193 5.50027 3.80653 5.50027 5ZM10.0003 2C9.20462 2 8.44156 2.31607 7.87895 2.87868C7.31634 3.44129 7.00027 4.20435 7.00027 5V5.75H13.0003V5C13.0003 4.20435 12.6842 3.44129 12.1216 2.87868C11.559 2.31607 10.7959 2 10.0003 2ZM7.00027 10.25C7.00027 11.0456 7.31634 11.8087 7.87895 12.3713C8.44156 12.9339 9.20462 13.25 10.0003 13.25C10.7959 13.25 11.559 12.9339 12.1216 12.3713C12.6842 11.8087 13.0003 11.0456 13.0003 10.25V9.5C13.0003 9.30109 13.0793 9.11032 13.2199 8.96967C13.3606 8.82902 13.5514 8.75 13.7503 8.75C13.9492 8.75 14.14 8.82902 14.2806 8.96967C14.4213 9.11032 14.5003 9.30109 14.5003 9.5V10.25C14.5003 11.4435 14.0262 12.5881 13.1823 13.432C12.3383 14.2759 11.1937 14.75 10.0003 14.75C8.8068 14.75 7.66221 14.2759 6.81829 13.432C5.97438 12.5881 5.50027 11.4435 5.50027 10.25V9.5C5.50027 9.30109 5.57929 9.11032 5.71994 8.96967C5.86059 8.82902 6.05136 8.75 6.25027 8.75C6.44919 8.75 6.63995 8.82902 6.7806 8.96967C6.92125 9.11032 7.00027 9.30109 7.00027 9.5V10.25Z" fill="white"/>
</svg>
