<svg width="14" height="15" viewBox="0 0 14 15" fill="none" xmlns="http://www.w3.org/2000/svg">
<path d="M9.77499 3.66667C9.77499 2.19391 8.58108 1 7.10832 1C5.63556 1 4.44165 2.19391 4.44165 3.66667M1.50299 6.56798L1.10299 10.8346C0.989257 12.0478 0.932391 12.6543 1.13369 13.1229C1.31052 13.5344 1.6204 13.8747 2.01366 14.0892C2.46134 14.3333 3.07056 14.3333 4.28902 14.3333H9.92762C11.1461 14.3333 11.7553 14.3333 12.203 14.0892C12.5962 13.8747 12.9061 13.5344 13.083 13.1229C13.2842 12.6543 13.2274 12.0478 13.1137 10.8346L12.7136 6.56798C12.6176 5.54356 12.5696 5.03136 12.3392 4.64411C12.1363 4.30306 11.8365 4.03007 11.478 3.8599C11.071 3.66667 10.5565 3.66667 9.52762 3.66667L4.68902 3.66667C3.66011 3.66667 3.14566 3.66667 2.7386 3.8599C2.3801 4.03007 2.08032 4.30306 1.87743 4.64411C1.64705 5.03136 1.59903 5.54356 1.50299 6.56798Z" stroke="black" stroke-linecap="round" stroke-linejoin="round"/>
</svg>
