<svg width="174" height="28" viewBox="0 0 174 28" fill="none" xmlns="http://www.w3.org/2000/svg">
<path d="M0 17.831C0 15.8537 0.388218 14.1 1.16465 12.57C1.96462 11.0399 3.04692 9.86297 4.41157 9.03909C5.77621 8.21522 7.29379 7.80328 8.9643 7.80328C10.2348 7.80328 11.4465 8.08575 12.5994 8.65069C13.7523 9.1921 14.6699 9.92182 15.3523 10.8398V1.55359H20.3638V27.6822H15.3523V24.7869C14.7405 25.752 13.8817 26.5288 12.7759 27.1173C11.6701 27.7058 10.3878 28 8.92901 28C7.28203 28 5.77621 27.5763 4.41157 26.7289C3.04692 25.8815 1.96462 24.6927 1.16465 23.1627C0.388218 21.6091 0 19.8319 0 17.831ZM15.3875 17.9016C15.3875 16.7011 15.1523 15.6772 14.6817 14.8298C14.2111 13.9588 13.5759 13.2997 12.7759 12.8525C11.9759 12.3817 11.1171 12.1463 10.1995 12.1463C9.28194 12.1463 8.43492 12.3699 7.65848 12.8171C6.88204 13.2644 6.24678 13.9235 5.75268 14.7945C5.28212 15.6419 5.04683 16.6541 5.04683 17.831C5.04683 19.008 5.28212 20.0437 5.75268 20.9382C6.24678 21.8092 6.88204 22.48 7.65848 22.9508C8.45844 23.4216 9.30546 23.657 10.1995 23.657C11.1171 23.657 11.9759 23.4334 12.7759 22.9861C13.5759 22.5153 14.2111 21.8562 14.6817 21.0088C15.1523 20.1379 15.3875 19.1021 15.3875 17.9016Z" fill="black"/>
<path d="M26.9894 5.79067C26.1189 5.79067 25.3895 5.51997 24.8013 4.97856C24.2366 4.41362 23.9543 3.71921 23.9543 2.89533C23.9543 2.07146 24.2366 1.38882 24.8013 0.847414C25.3895 0.282471 26.1189 0 26.9894 0C27.86 0 28.5776 0.282471 29.1423 0.847414C29.7305 1.38882 30.0246 2.07146 30.0246 2.89533C30.0246 3.71921 29.7305 4.41362 29.1423 4.97856C28.5776 5.51997 27.86 5.79067 26.9894 5.79067ZM29.4246 8.12106V27.6822H24.4836V8.12106H29.4246Z" fill="black"/>
<path d="M41.753 23.1274L46.694 8.12106H51.9525L44.7176 27.6822H38.7178L31.5182 8.12106H36.812L41.753 23.1274Z" fill="black"/>
<path d="M57.0309 27.9294C56.1368 27.9294 55.3957 27.6587 54.8075 27.1173C54.2428 26.5523 53.9604 25.8579 53.9604 25.034C53.9604 24.2102 54.2428 23.5275 54.8075 22.9861C55.3957 22.4212 56.1368 22.1387 57.0309 22.1387C57.9014 22.1387 58.6191 22.4212 59.1837 22.9861C59.7484 23.5275 60.0308 24.2102 60.0308 25.034C60.0308 25.8579 59.7484 26.5523 59.1837 27.1173C58.6191 27.6587 57.9014 27.9294 57.0309 27.9294Z" fill="#3300FF"/>
<path d="M87.586 7.83859C89.9858 7.83859 91.9152 8.58008 93.3739 10.0631C94.8562 11.5225 95.5974 13.5704 95.5974 16.2068V27.6822H90.6564V16.8777C90.6564 15.3476 90.2682 14.1824 89.4918 13.3821C88.7153 12.5582 87.6565 12.1463 86.3154 12.1463C84.9743 12.1463 83.9038 12.5582 83.1038 13.3821C82.3274 14.1824 81.9392 15.3476 81.9392 16.8777V27.6822H76.9982V16.8777C76.9982 15.3476 76.61 14.1824 75.8335 13.3821C75.0571 12.5582 73.9983 12.1463 72.6572 12.1463C71.2926 12.1463 70.2103 12.5582 69.4103 13.3821C68.6339 14.1824 68.2457 15.3476 68.2457 16.8777V27.6822H63.3047V8.12106H68.2457V10.4868C68.8809 9.66288 69.6926 9.01555 70.6808 8.54477C71.6926 8.07398 72.7984 7.83859 73.9983 7.83859C75.5277 7.83859 76.8923 8.16814 78.0923 8.82724C79.2922 9.4628 80.2216 10.3808 80.8804 11.5813C81.5156 10.4515 82.4333 9.54519 83.6332 8.86255C84.8567 8.17991 86.1743 7.83859 87.586 7.83859Z" fill="#3300FF"/>
<path d="M117.756 17.4779C117.756 18.1841 117.709 18.8197 117.615 19.3846H103.321C103.439 20.797 103.933 21.9033 104.803 22.7037C105.674 23.504 106.745 23.9042 108.015 23.9042C109.85 23.9042 111.156 23.1156 111.933 21.5385H117.262C116.697 23.4216 115.615 24.9752 114.015 26.1992C112.415 27.3997 110.45 28 108.121 28C106.239 28 104.545 27.5881 103.039 26.7642C101.557 25.9168 100.392 24.728 99.5449 23.198C98.7214 21.6679 98.3096 19.9025 98.3096 17.9016C98.3096 15.8773 98.7214 14.1 99.5449 12.57C100.368 11.0399 101.521 9.86297 103.004 9.03909C104.486 8.21522 106.192 7.80328 108.121 7.80328C109.98 7.80328 111.638 8.20345 113.097 9.00378C114.58 9.80412 115.721 10.9458 116.521 12.4288C117.344 13.8882 117.756 15.5712 117.756 17.4779ZM112.638 16.0656C112.615 14.7945 112.156 13.7823 111.262 13.029C110.368 12.2522 109.274 11.8638 107.98 11.8638C106.756 11.8638 105.721 12.2404 104.874 12.9937C104.051 13.7234 103.545 14.7474 103.356 16.0656H112.638Z" fill="#3300FF"/>
<path d="M125.597 11.1576C126.233 10.1219 127.056 9.30979 128.068 8.72131C129.103 8.13283 130.28 7.83859 131.597 7.83859V13.029H130.291C128.738 13.029 127.562 13.3939 126.762 14.1236C125.986 14.8533 125.597 16.1244 125.597 17.9369V27.6822H120.656V8.12106H125.597V11.1576Z" fill="#3300FF"/>
<path d="M132.949 17.9016C132.949 15.8773 133.36 14.1118 134.184 12.6053C135.007 11.0752 136.149 9.89828 137.607 9.0744C139.066 8.22699 140.737 7.80328 142.619 7.80328C145.042 7.80328 147.042 8.4153 148.619 9.63934C150.219 10.8398 151.289 12.5347 151.83 14.7238H146.501C146.219 13.8764 145.736 13.2173 145.054 12.7465C144.395 12.2522 143.572 12.005 142.584 12.005C141.172 12.005 140.054 12.5229 139.231 13.5586C138.407 14.5708 137.996 16.0185 137.996 17.9016C137.996 19.7612 138.407 21.2089 139.231 22.2446C140.054 23.2568 141.172 23.7629 142.584 23.7629C144.583 23.7629 145.889 22.8684 146.501 21.0794H151.83C151.289 23.198 150.219 24.881 148.619 26.1286C147.019 27.3762 145.019 28 142.619 28C140.737 28 139.066 27.5881 137.607 26.7642C136.149 25.9168 135.007 24.7398 134.184 23.2333C133.36 21.7032 132.949 19.926 132.949 17.9016Z" fill="#3300FF"/>
<path d="M165.755 7.83859C167.238 7.83859 168.555 8.16814 169.708 8.82724C170.861 9.4628 171.755 10.4161 172.39 11.6873C173.049 12.9348 173.379 14.4414 173.379 16.2068V27.6822H168.438V16.8777C168.438 15.3241 168.049 14.1354 167.273 13.3115C166.496 12.4641 165.438 12.0404 164.097 12.0404C162.732 12.0404 161.65 12.4641 160.85 13.3115C160.073 14.1354 159.685 15.3241 159.685 16.8777V27.6822H154.744V1.55359H159.685V10.5574C160.32 9.70996 161.167 9.05086 162.226 8.58008C163.285 8.08575 164.461 7.83859 165.755 7.83859Z" fill="#3300FF"/>
</svg>
