<svg width="105" height="12" viewBox="0 0 105 12" fill="none" xmlns="http://www.w3.org/2000/svg">
<path d="M3 4.63636C3 4.17045 3.11364 3.74574 3.34091 3.36222C3.56818 2.97869 3.87358 2.6733 4.2571 2.44602C4.64063 2.21875 5.06534 2.10511 5.53125 2.10511C5.93466 2.10511 6.30682 2.19176 6.64773 2.36506C6.99148 2.53835 7.27557 2.77557 7.5 3.0767C7.72443 3.375 7.86364 3.71307 7.91761 4.09091H6.88636C6.82955 3.7983 6.67188 3.55966 6.41335 3.375C6.15483 3.1875 5.8608 3.09375 5.53125 3.09375C5.24716 3.09375 4.98864 3.16335 4.75568 3.30256C4.52273 3.44176 4.33665 3.62784 4.19744 3.8608C4.05824 4.09375 3.98864 4.35227 3.98864 4.63636C3.98864 4.92045 4.05824 5.17898 4.19744 5.41193C4.33665 5.64489 4.52273 5.83097 4.75568 5.97017C4.98864 6.10937 5.24716 6.17898 5.53125 6.17898C5.8608 6.17898 6.1392 6.08665 6.36648 5.90199C6.59659 5.71449 6.74148 5.47443 6.80114 5.18182H7.83239C7.77841 5.55966 7.64631 5.89915 7.43608 6.20028C7.22585 6.49858 6.95597 6.73437 6.62642 6.90767C6.29972 7.08097 5.93466 7.16761 5.53125 7.16761C5.06534 7.16761 4.64063 7.05398 4.2571 6.8267C3.87358 6.59943 3.56818 6.29403 3.34091 5.91051C3.11364 5.52699 3 5.10227 3 4.63636ZM5.48864 9.13636C4.86932 9.13636 4.28693 9.01989 3.74148 8.78693C3.19886 8.55398 2.72017 8.23153 2.3054 7.8196C1.89347 7.40483 1.5696 6.92614 1.33381 6.38352C1.10085 5.84091 0.985795 5.25852 0.988636 4.63636C0.991477 4.0142 1.10938 3.43182 1.34233 2.8892C1.57813 2.34659 1.90199 1.86932 2.31392 1.45739C2.72585 1.04261 3.20313 0.71875 3.74574 0.485795C4.28835 0.252841 4.86932 0.136364 5.48864 0.136364C6.1108 0.136364 6.69318 0.252841 7.2358 0.485795C7.78125 0.71875 8.25852 1.04261 8.66761 1.45739C9.07955 1.86932 9.40199 2.34659 9.63494 2.8892C9.8679 3.43182 9.9858 4.0142 9.98864 4.63636C9.99148 5.25852 9.87642 5.84091 9.64347 6.38352C9.41051 6.92614 9.08807 7.40483 8.67614 7.8196C8.2642 8.23153 7.78551 8.55398 7.24006 8.78693C6.6946 9.01989 6.1108 9.13636 5.48864 9.13636ZM5.48864 8.14773C5.97443 8.14773 6.4304 8.05682 6.85653 7.875C7.28267 7.69318 7.65625 7.44176 7.97727 7.12074C8.2983 6.79972 8.54972 6.42756 8.73153 6.00426C8.91335 5.57812 9.00284 5.12358 9 4.64062C8.99716 4.15483 8.90483 3.69886 8.72301 3.27273C8.54119 2.84659 8.28977 2.47301 7.96875 2.15199C7.64773 1.83097 7.27557 1.57955 6.85227 1.39773C6.42898 1.21591 5.97443 1.125 5.48864 1.125C5.00568 1.125 4.55256 1.21591 4.12926 1.39773C3.70597 1.57955 3.33381 1.83239 3.01278 2.15625C2.69176 2.47727 2.43892 2.85085 2.25426 3.27699C2.07244 3.70028 1.98011 4.15483 1.97727 4.64062C1.97443 5.12074 2.06392 5.57386 2.24574 6C2.42756 6.4233 2.67898 6.79545 3 7.11648C3.32386 7.4375 3.69744 7.69034 4.12074 7.875C4.54688 8.05682 5.00284 8.14773 5.48864 8.14773ZM17.7475 9.13636C17.2021 9.13636 16.7205 8.99858 16.3029 8.72301C15.8853 8.4446 15.5586 8.05256 15.3228 7.54688C15.087 7.03835 14.9691 6.4375 14.9691 5.74432C14.9691 5.05682 15.087 4.46023 15.3228 3.95455C15.5586 3.44886 15.8867 3.05824 16.3072 2.78267C16.7276 2.5071 17.2134 2.36932 17.7646 2.36932C18.1907 2.36932 18.5273 2.44034 18.7745 2.58239C19.0245 2.72159 19.2148 2.88068 19.3455 3.05966C19.479 3.2358 19.5827 3.38068 19.6566 3.49432H19.7418V0.272727H20.7475V9H19.7759V7.99432H19.6566C19.5827 8.11364 19.4776 8.2642 19.3413 8.44602C19.2049 8.625 19.0103 8.78551 18.7575 8.92756C18.5046 9.06676 18.168 9.13636 17.7475 9.13636ZM17.8839 8.23295C18.2873 8.23295 18.6282 8.12784 18.9066 7.91761C19.185 7.70455 19.3967 7.41051 19.5415 7.03551C19.6864 6.65767 19.7589 6.22159 19.7589 5.72727C19.7589 5.23864 19.6879 4.81108 19.5458 4.4446C19.4038 4.07528 19.1935 3.78835 18.9151 3.58381C18.6367 3.37642 18.293 3.27273 17.8839 3.27273C17.4577 3.27273 17.1026 3.3821 16.8185 3.60085C16.5373 3.81676 16.3256 4.1108 16.1836 4.48295C16.0444 4.85227 15.9748 5.26705 15.9748 5.72727C15.9748 6.19318 16.0458 6.61648 16.1879 6.99716C16.3327 7.375 16.5458 7.67614 16.8271 7.90057C17.1112 8.12216 17.4634 8.23295 17.8839 8.23295ZM22.729 9V2.45455H23.7347V9H22.729ZM23.2404 1.36364C23.0444 1.36364 22.8754 1.29687 22.7333 1.16335C22.5941 1.02983 22.5245 0.869318 22.5245 0.681818C22.5245 0.494318 22.5941 0.333807 22.7333 0.200284C22.8754 0.0667613 23.0444 0 23.2404 0C23.4364 0 23.604 0.0667613 23.7433 0.200284C23.8853 0.333807 23.9563 0.494318 23.9563 0.681818C23.9563 0.869318 23.8853 1.02983 23.7433 1.16335C23.604 1.29687 23.4364 1.36364 23.2404 1.36364ZM30.929 2.45455L28.5085 9H27.4858L25.0653 2.45455H26.1562L27.9631 7.67045H28.0312L29.8381 2.45455H30.929ZM32.5792 9.06818C32.369 9.06818 32.1886 8.9929 32.038 8.84233C31.8874 8.69176 31.8121 8.51136 31.8121 8.30114C31.8121 8.09091 31.8874 7.91051 32.038 7.75994C32.1886 7.60937 32.369 7.53409 32.5792 7.53409C32.7894 7.53409 32.9698 7.60937 33.1204 7.75994C33.271 7.91051 33.3462 8.09091 33.3462 8.30114C33.3462 8.44034 33.3107 8.56818 33.2397 8.68466C33.1715 8.80114 33.0792 8.89489 32.9627 8.96591C32.8491 9.03409 32.7212 9.06818 32.5792 9.06818ZM35.1509 9V2.45455H36.1225V3.47727H36.2077C36.3441 3.12784 36.5643 2.85653 36.8683 2.66335C37.1722 2.46733 37.5373 2.36932 37.9634 2.36932C38.3952 2.36932 38.7546 2.46733 39.0415 2.66335C39.3313 2.85653 39.5572 3.12784 39.7191 3.47727H39.7873C39.9549 3.1392 40.2063 2.87074 40.5415 2.67188C40.8768 2.47017 41.2788 2.36932 41.7475 2.36932C42.3327 2.36932 42.8114 2.55256 43.1836 2.91903C43.5558 3.28267 43.7418 3.84943 43.7418 4.61932V9H42.7362V4.61932C42.7362 4.13636 42.604 3.79119 42.3398 3.58381C42.0756 3.37642 41.7646 3.27273 41.4066 3.27273C40.9464 3.27273 40.5898 3.41193 40.337 3.69034C40.0842 3.96591 39.9577 4.31534 39.9577 4.73864V9H38.935V4.51705C38.935 4.14489 38.8143 3.84517 38.5728 3.6179C38.3313 3.38778 38.0202 3.27273 37.6396 3.27273C37.3782 3.27273 37.1339 3.34233 36.9066 3.48153C36.6822 3.62074 36.5004 3.81392 36.3612 4.06108C36.2248 4.3054 36.1566 4.58807 36.1566 4.90909V9H35.1509ZM48.3249 9.13636C47.6942 9.13636 47.1502 8.99716 46.6928 8.71875C46.2383 8.4375 45.8874 8.04545 45.6403 7.54261C45.396 7.03693 45.2738 6.44886 45.2738 5.77841C45.2738 5.10795 45.396 4.51705 45.6403 4.00568C45.8874 3.49148 46.2312 3.09091 46.6715 2.80398C47.1147 2.5142 47.6317 2.36932 48.2227 2.36932C48.5636 2.36932 48.9002 2.42614 49.2326 2.53977C49.565 2.65341 49.8675 2.83807 50.1403 3.09375C50.413 3.34659 50.6303 3.68182 50.7923 4.09943C50.9542 4.51705 51.0352 5.03125 51.0352 5.64205V6.06818H45.9897V5.19886H50.0124C50.0124 4.82955 49.9386 4.5 49.7908 4.21023C49.646 3.92045 49.4386 3.69176 49.1687 3.52415C48.9016 3.35653 48.5863 3.27273 48.2227 3.27273C47.8221 3.27273 47.4755 3.37216 47.1829 3.57102C46.8931 3.76705 46.6701 4.02273 46.5138 4.33807C46.3576 4.65341 46.2795 4.99148 46.2795 5.35227V5.93182C46.2795 6.42614 46.3647 6.84517 46.5352 7.18892C46.7085 7.52983 46.9485 7.78977 47.2553 7.96875C47.5621 8.14489 47.9187 8.23295 48.3249 8.23295C48.5891 8.23295 48.8278 8.19602 49.0408 8.12216C49.2567 8.04545 49.4428 7.93182 49.5991 7.78125C49.7553 7.62784 49.8761 7.4375 49.9613 7.21023L50.9329 7.48295C50.8306 7.8125 50.6587 8.10227 50.4173 8.35227C50.1758 8.59943 49.8775 8.79261 49.5224 8.93182C49.1673 9.06818 48.7681 9.13636 48.3249 9.13636ZM52.565 9V2.45455H53.5366V3.44318H53.6048C53.7241 3.11932 53.94 2.85653 54.2525 2.65483C54.565 2.45312 54.9173 2.35227 55.3093 2.35227C55.3832 2.35227 55.4755 2.35369 55.5863 2.35653C55.6971 2.35937 55.7809 2.36364 55.8377 2.36932V3.39205C55.8036 3.38352 55.7255 3.37074 55.6033 3.35369C55.484 3.33381 55.3576 3.32386 55.2241 3.32386C54.9059 3.32386 54.6218 3.39062 54.3718 3.52415C54.1246 3.65483 53.9286 3.83665 53.7837 4.0696C53.6417 4.29972 53.5707 4.5625 53.5707 4.85795V9H52.565ZM59.4897 9.13636C58.8761 9.13636 58.3477 8.99148 57.9045 8.7017C57.4613 8.41193 57.1204 8.01278 56.8817 7.50426C56.6431 6.99574 56.5238 6.41477 56.5238 5.76136C56.5238 5.09659 56.646 4.50994 56.8903 4.00142C57.1374 3.49006 57.4812 3.09091 57.9215 2.80398C58.3647 2.5142 58.8817 2.36932 59.4727 2.36932C59.9329 2.36932 60.3477 2.45455 60.717 2.625C61.0863 2.79545 61.3888 3.03409 61.6246 3.34091C61.8604 3.64773 62.0067 4.00568 62.0636 4.41477H61.0579C60.9812 4.11648 60.8107 3.85227 60.5465 3.62216C60.2852 3.3892 59.9329 3.27273 59.4897 3.27273C59.0977 3.27273 58.7539 3.375 58.4585 3.57955C58.1658 3.78125 57.9371 4.06676 57.7724 4.43608C57.6104 4.80256 57.5295 5.23295 57.5295 5.72727C57.5295 6.23295 57.609 6.6733 57.7681 7.0483C57.93 7.4233 58.1573 7.71449 58.4499 7.92188C58.7454 8.12926 59.092 8.23295 59.4897 8.23295C59.7511 8.23295 59.9883 8.1875 60.2013 8.09659C60.4144 8.00568 60.5948 7.875 60.7425 7.70455C60.8903 7.53409 60.9954 7.32955 61.0579 7.09091H62.0636C62.0067 7.47727 61.8661 7.82528 61.6417 8.13494C61.4201 8.44176 61.1261 8.68608 60.7596 8.8679C60.396 9.04688 59.9727 9.13636 59.4897 9.13636ZM64.5394 5.0625V9H63.5337V0.272727H64.5394V3.47727H64.6246C64.7781 3.1392 65.0082 2.87074 65.315 2.67188C65.6246 2.47017 66.0366 2.36932 66.5508 2.36932C66.9968 2.36932 67.3874 2.45881 67.7227 2.63778C68.0579 2.81392 68.3178 3.08523 68.5025 3.4517C68.69 3.81534 68.7837 4.27841 68.7837 4.84091V9H67.7781V4.90909C67.7781 4.3892 67.6431 3.98722 67.3732 3.70312C67.1062 3.41619 66.7354 3.27273 66.261 3.27273C65.9315 3.27273 65.636 3.34233 65.3746 3.48153C65.1161 3.62074 64.9116 3.82386 64.761 4.09091C64.6133 4.35795 64.5394 4.68182 64.5394 5.0625ZM72.1236 7.80682L72.0554 8.26705C72.0071 8.59091 71.9332 8.9375 71.8338 9.30682C71.7372 9.67614 71.6364 10.0241 71.5312 10.3509C71.4261 10.6776 71.3395 10.9375 71.2713 11.1307H70.5043C70.5412 10.9489 70.5895 10.7088 70.6491 10.4105C70.7088 10.1122 70.7685 9.77841 70.8281 9.40909C70.8906 9.04261 70.9418 8.66761 70.9815 8.28409L71.0327 7.80682H72.1236ZM77.3448 9V8.23295L80.2255 5.07955C80.5636 4.71023 80.842 4.3892 81.0607 4.11648C81.2795 3.84091 81.4414 3.58239 81.5465 3.34091C81.6545 3.09659 81.7085 2.84091 81.7085 2.57386C81.7085 2.26705 81.6346 2.00142 81.4869 1.77699C81.342 1.55256 81.1431 1.37926 80.8903 1.2571C80.6374 1.13494 80.3533 1.07386 80.038 1.07386C79.7028 1.07386 79.4102 1.14347 79.1602 1.28267C78.913 1.41903 78.7212 1.6108 78.5849 1.85795C78.4513 2.10511 78.3846 2.39489 78.3846 2.72727H77.3789C77.3789 2.21591 77.4968 1.76705 77.7326 1.38068C77.9684 0.994318 78.2894 0.693181 78.6957 0.477272C79.1048 0.261363 79.5636 0.153409 80.0721 0.153409C80.5835 0.153409 81.0366 0.261363 81.4315 0.477272C81.8263 0.693181 82.136 0.984375 82.3604 1.35085C82.5849 1.71733 82.6971 2.125 82.6971 2.57386C82.6971 2.89489 82.6388 3.20881 82.5224 3.51562C82.4087 3.8196 82.2099 4.15909 81.9258 4.53409C81.6445 4.90625 81.2539 5.3608 80.7539 5.89773L78.7937 7.99432V8.0625H82.8505V9H77.3448ZM87.457 9.11932C86.815 9.11932 86.2681 8.9446 85.8164 8.59517C85.3647 8.2429 85.0195 7.73295 84.7809 7.06534C84.5423 6.39489 84.4229 5.58523 84.4229 4.63636C84.4229 3.69318 84.5423 2.88778 84.7809 2.22017C85.0224 1.54972 85.369 1.03835 85.8207 0.686079C86.2752 0.330966 86.8207 0.153409 87.457 0.153409C88.0934 0.153409 88.6374 0.330966 89.0891 0.686079C89.5437 1.03835 89.8903 1.54972 90.1289 2.22017C90.3704 2.88778 90.4911 3.69318 90.4911 4.63636C90.4911 5.58523 90.3718 6.39489 90.1332 7.06534C89.8945 7.73295 89.5494 8.2429 89.0977 8.59517C88.646 8.9446 88.0991 9.11932 87.457 9.11932ZM87.457 8.18182C88.0934 8.18182 88.5877 7.875 88.94 7.26136C89.2923 6.64773 89.4684 5.77273 89.4684 4.63636C89.4684 3.88068 89.3874 3.23722 89.2255 2.70597C89.0664 2.17472 88.8363 1.76989 88.5352 1.49148C88.2369 1.21307 87.8775 1.07386 87.457 1.07386C86.8263 1.07386 86.3335 1.38494 85.9783 2.0071C85.6232 2.62642 85.4457 3.50284 85.4457 4.63636C85.4457 5.39205 85.5252 6.03409 85.6843 6.5625C85.8434 7.09091 86.0721 7.4929 86.3704 7.76847C86.6715 8.04403 87.0337 8.18182 87.457 8.18182ZM92.1104 9V8.23295L94.9911 5.07955C95.3292 4.71023 95.6076 4.3892 95.8263 4.11648C96.0451 3.84091 96.207 3.58239 96.3121 3.34091C96.4201 3.09659 96.4741 2.84091 96.4741 2.57386C96.4741 2.26705 96.4002 2.00142 96.2525 1.77699C96.1076 1.55256 95.9087 1.37926 95.6559 1.2571C95.4031 1.13494 95.119 1.07386 94.8036 1.07386C94.4684 1.07386 94.1758 1.14347 93.9258 1.28267C93.6786 1.41903 93.4869 1.6108 93.3505 1.85795C93.217 2.10511 93.1502 2.39489 93.1502 2.72727H92.1445C92.1445 2.21591 92.2624 1.76705 92.4982 1.38068C92.734 0.994318 93.055 0.693181 93.4613 0.477272C93.8704 0.261363 94.3292 0.153409 94.8377 0.153409C95.3491 0.153409 95.8022 0.261363 96.1971 0.477272C96.592 0.693181 96.9016 0.984375 97.1261 1.35085C97.3505 1.71733 97.4627 2.125 97.4627 2.57386C97.4627 2.89489 97.4045 3.20881 97.288 3.51562C97.1744 3.8196 96.9755 4.15909 96.6914 4.53409C96.4102 4.90625 96.0195 5.3608 95.5195 5.89773L93.5593 7.99432V8.0625H97.6161V9H92.1104ZM99.3761 9V8.23295L102.257 5.07955C102.595 4.71023 102.873 4.3892 103.092 4.11648C103.311 3.84091 103.473 3.58239 103.578 3.34091C103.686 3.09659 103.74 2.84091 103.74 2.57386C103.74 2.26705 103.666 2.00142 103.518 1.77699C103.373 1.55256 103.174 1.37926 102.922 1.2571C102.669 1.13494 102.385 1.07386 102.069 1.07386C101.734 1.07386 101.441 1.14347 101.191 1.28267C100.944 1.41903 100.752 1.6108 100.616 1.85795C100.483 2.10511 100.416 2.39489 100.416 2.72727H99.4102C99.4102 2.21591 99.5281 1.76705 99.7638 1.38068C99.9996 0.994318 100.321 0.693181 100.727 0.477272C101.136 0.261363 101.595 0.153409 102.103 0.153409C102.615 0.153409 103.068 0.261363 103.463 0.477272C103.858 0.693181 104.167 0.984375 104.392 1.35085C104.616 1.71733 104.728 2.125 104.728 2.57386C104.728 2.89489 104.67 3.20881 104.554 3.51562C104.44 3.8196 104.241 4.15909 103.957 4.53409C103.676 4.90625 103.285 5.3608 102.785 5.89773L100.825 7.99432V8.0625H104.882V9H99.3761Z" fill="#A6A6A6"/>
</svg>
