<svg width="32" height="32" viewBox="0 0 32 32" fill="none" xmlns="http://www.w3.org/2000/svg">
<path fill-rule="evenodd" clip-rule="evenodd" d="M16.0002 23.7889C14.5413 24.9356 12.7893 25.6487 10.9444 25.8467C9.09946 26.0447 7.236 25.7197 5.56704 24.9087C3.89808 24.0977 2.49096 22.8335 1.50651 21.2606C0.522063 19.6878 0 17.8696 0 16.0141C0 14.1585 0.522063 12.3404 1.50651 10.7675C2.49096 9.19463 3.89808 7.93046 5.56704 7.11949C7.236 6.30851 9.09946 5.98346 10.9444 6.18148C12.7893 6.37949 14.5413 7.09256 16.0001 8.23919C17.4589 7.09256 19.2108 6.37949 21.0557 6.18148C22.9007 5.98346 24.7641 6.30852 26.433 7.1195C28.1019 7.93048 29.509 9.19465 30.4934 10.7675C31.4778 12.3404 31.9998 14.1585 31.9997 16.014C31.9998 17.8696 31.4778 19.6877 30.4934 21.2606C29.509 22.8334 28.1019 24.0976 26.433 24.9086C24.7641 25.7196 22.9007 26.0446 21.0557 25.8466C19.2109 25.6486 17.4589 24.9356 16.0002 23.7889ZM12.2232 16.0141C12.2218 14.5165 12.5612 13.0383 13.2156 11.6913C13.8699 10.3444 14.8221 9.16394 16.0001 8.23938C17.1771 9.16487 18.1285 10.3455 18.7828 11.6922C19.4371 13.039 19.777 14.5167 19.777 16.014C19.777 17.5113 19.4371 18.9891 18.7828 20.3359C18.1285 21.6826 17.177 22.8633 16.0001 23.7887C14.8221 22.8642 13.8699 21.6838 13.2156 20.3368C12.5612 18.9898 12.2218 17.5116 12.2232 16.0141ZM17.618 23.6839C18.6995 24.3175 19.9071 24.7176 21.1624 24.8523C22.8208 25.0303 24.4958 24.7381 25.9959 24.0092C27.4961 23.2802 28.7609 22.1439 29.6457 20.73C30.5306 19.3162 30.9998 17.682 30.9997 16.0141C30.9998 14.3462 30.5306 12.7119 29.6457 11.2981C28.7609 9.88423 27.4961 8.7479 25.9959 8.01893C24.4958 7.28996 22.8208 6.99777 21.1624 7.17577C19.9071 7.31051 18.6995 7.71057 17.618 8.34417C18.4593 9.19227 19.1576 10.1753 19.6823 11.2553C20.4027 12.7382 20.777 14.3654 20.777 16.014C20.777 17.6627 20.4027 19.2899 19.6823 20.7728C19.1576 21.8528 18.4593 22.8358 17.618 23.6839Z" fill="#A6A6A6"/>
<path d="M31.0566 21.8232V22.1416H30.9865V21.8232H30.858V21.7584H31.1849V21.8232H31.0566Z" fill="#A6A6A6"/>
<path d="M31.6913 21.7577V22.1416H31.6206V21.8514L31.5125 22.1016H31.4391L31.331 21.852V22.1416H31.2602V21.7577H31.3605L31.4758 22.0217L31.5911 21.7577H31.6913Z" fill="#A6A6A6"/>
</svg>
