<svg width="32" height="32" viewBox="0 0 32 32" fill="none" xmlns="http://www.w3.org/2000/svg">
<path d="M3.00448 11.6259C2.98812 11.6261 2.97297 11.6264 2.95914 11.6265L0 11.6265V20.3538H2.85948V15.2068H3.05123L4.64525 20.3538H6.79665L8.39067 15.2107H8.58242V20.3538H11.4419V11.6265L8.63636 11.6265C8.6146 11.6265 8.59089 11.6262 8.56546 11.6258C8.16588 11.6204 7.34188 11.609 7 12.7629C6.78752 13.48 6.39714 14.8202 5.82886 16.7835H5.61305C5.08314 14.9213 4.69697 13.5811 4.45455 12.7629C4.11207 11.607 3.32609 11.6204 3.00448 11.6259Z" fill="#A6A6A6"/>
<path d="M15.5481 16.7735V11.6265H12.6289V20.3538H15.396C15.396 20.3538 16.2362 20.2776 16.6126 19.4391L18.5136 15.2068H18.7417V20.3538H21.6609V11.6265H18.8938C18.8938 11.6265 18.0916 11.6989 17.7152 12.5412L15.7762 16.7735H15.5481Z" fill="#A6A6A6"/>
<path d="M28.6492 17.7541C30.065 17.7541 31.3438 16.9277 31.751 15.7738H22.8119V20.3538H25.5879V17.7541H28.6492Z" fill="#A6A6A6"/>
<path d="M22.6663 11.6265H28.7831C31.1367 11.6265 32.2743 13.618 31.9438 15.2328H26.2173C24.4851 15.2328 22.8119 13.5695 22.6663 11.6265Z" fill="#A6A6A6"/>
</svg>
